<mxfile host="app.diagrams.net" modified="2023-12-19T06:10:59.130Z" agent="Mozilla/5.0 (Windows NT 10.0; Win64; x64) AppleWebKit/537.36 (KHTML, like Gecko) Chrome/120.0.0.0 Safari/537.36" etag="an5KCnHnRaaH9BMOUJ59" version="22.1.11" type="github">
  <diagram name="Page-1" id="13e1069c-82ec-6db2-03f1-153e76fe0fe0">
    <mxGraphModel dx="706" dy="691" grid="1" gridSize="10" guides="1" tooltips="1" connect="1" arrows="1" fold="1" page="1" pageScale="1" pageWidth="1100" pageHeight="850" background="none" math="0" shadow="0">
      <root>
        <mxCell id="0" />
        <mxCell id="1" parent="0" />
        <mxCell id="zjFDjqaOxEZ_G2lJnjP6-79" value="" style="group" vertex="1" connectable="0" parent="1">
          <mxGeometry x="70" width="1150" height="610" as="geometry" />
        </mxCell>
        <mxCell id="zjFDjqaOxEZ_G2lJnjP6-47" value="&lt;b&gt;DefaulfSqlSession生成核心流程&lt;/b&gt;" style="shape=umlFrame;whiteSpace=wrap;html=1;pointerEvents=0;fontSize=16;fillStyle=solid;swimlaneFillColor=default;width=290;height=30;fillColor=#fad7ac;strokeColor=#b46504;shadow=0;container=0;" vertex="1" parent="zjFDjqaOxEZ_G2lJnjP6-79">
          <mxGeometry width="1150" height="610" as="geometry" />
        </mxCell>
        <mxCell id="zjFDjqaOxEZ_G2lJnjP6-3" value="&lt;font style=&quot;font-size: 14px;&quot;&gt;&lt;b&gt;SqlSessionFactoryBuilder&lt;/b&gt;&lt;/font&gt;" style="shape=umlLifeline;perimeter=lifelinePerimeter;whiteSpace=wrap;html=1;container=0;dropTarget=0;collapsible=0;recursiveResize=0;outlineConnect=0;portConstraint=eastwest;newEdgeStyle={&quot;curved&quot;:0,&quot;rounded&quot;:0};fontSize=16;labelBackgroundColor=none;" vertex="1" parent="zjFDjqaOxEZ_G2lJnjP6-79">
          <mxGeometry x="10" y="40" width="180" height="460" as="geometry" />
        </mxCell>
        <mxCell id="zjFDjqaOxEZ_G2lJnjP6-11" value="" style="html=1;align=left;spacingLeft=2;endArrow=block;rounded=0;edgeStyle=orthogonalEdgeStyle;curved=0;rounded=0;fontSize=12;startSize=8;endSize=8;" edge="1" parent="zjFDjqaOxEZ_G2lJnjP6-79">
          <mxGeometry x="0.8537" y="-10" relative="1" as="geometry">
            <mxPoint x="104" y="100" as="sourcePoint" />
            <Array as="points">
              <mxPoint x="130" y="100" />
              <mxPoint x="130" y="130" />
            </Array>
            <mxPoint x="104" y="130" as="targetPoint" />
            <mxPoint as="offset" />
          </mxGeometry>
        </mxCell>
        <mxCell id="zjFDjqaOxEZ_G2lJnjP6-14" value="&lt;font color=&quot;#ff6666&quot; style=&quot;font-size: 12px;&quot;&gt;1.创建对象 new SqlSessionFactoryBuilder()&lt;/font&gt;" style="edgeLabel;html=1;align=center;verticalAlign=middle;resizable=0;points=[];fontSize=16;container=0;" vertex="1" connectable="0" parent="zjFDjqaOxEZ_G2lJnjP6-11">
          <mxGeometry x="0.0976" y="2" relative="1" as="geometry">
            <mxPoint x="89" y="-7" as="offset" />
          </mxGeometry>
        </mxCell>
        <mxCell id="zjFDjqaOxEZ_G2lJnjP6-13" value="&lt;b&gt;&lt;font style=&quot;font-size: 14px;&quot;&gt;XMLConfigBuilder&lt;/font&gt;&lt;/b&gt;" style="shape=umlLifeline;perimeter=lifelinePerimeter;whiteSpace=wrap;html=1;container=0;dropTarget=0;collapsible=0;recursiveResize=0;outlineConnect=0;portConstraint=eastwest;newEdgeStyle={&quot;curved&quot;:0,&quot;rounded&quot;:0};fontSize=16;labelBackgroundColor=none;" vertex="1" parent="zjFDjqaOxEZ_G2lJnjP6-79">
          <mxGeometry x="260" y="40" width="180" height="460" as="geometry" />
        </mxCell>
        <mxCell id="zjFDjqaOxEZ_G2lJnjP6-19" value="&lt;b&gt;&lt;font color=&quot;#66cc00&quot;&gt;2.build(InputStream is)&lt;/font&gt;&lt;/b&gt;" style="html=1;verticalAlign=bottom;endArrow=block;curved=0;rounded=0;fontSize=12;startSize=8;endSize=8;" edge="1" parent="zjFDjqaOxEZ_G2lJnjP6-79" target="zjFDjqaOxEZ_G2lJnjP6-13">
          <mxGeometry width="80" relative="1" as="geometry">
            <mxPoint x="105" y="159" as="sourcePoint" />
            <mxPoint x="185" y="159" as="targetPoint" />
          </mxGeometry>
        </mxCell>
        <mxCell id="zjFDjqaOxEZ_G2lJnjP6-28" value="&lt;b&gt;&lt;font color=&quot;#ff6666&quot;&gt;3.创建解析器 parser = new XMLConfigBuilder(&lt;br&gt;inputStream, environment, properties)&lt;/font&gt;&lt;/b&gt;" style="html=1;align=left;spacingLeft=2;endArrow=block;rounded=0;edgeStyle=orthogonalEdgeStyle;curved=0;rounded=0;fontSize=12;startSize=8;endSize=8;" edge="1" parent="zjFDjqaOxEZ_G2lJnjP6-79">
          <mxGeometry relative="1" as="geometry">
            <mxPoint x="354" y="170" as="sourcePoint" />
            <Array as="points">
              <mxPoint x="384" y="200" />
            </Array>
            <mxPoint x="354" y="200" as="targetPoint" />
          </mxGeometry>
        </mxCell>
        <mxCell id="zjFDjqaOxEZ_G2lJnjP6-29" value="&lt;b&gt;&lt;font style=&quot;font-size: 14px;&quot;&gt;Configuration&lt;/font&gt;&lt;/b&gt;" style="shape=umlLifeline;perimeter=lifelinePerimeter;whiteSpace=wrap;html=1;container=0;dropTarget=0;collapsible=0;recursiveResize=0;outlineConnect=0;portConstraint=eastwest;newEdgeStyle={&quot;curved&quot;:0,&quot;rounded&quot;:0};fontSize=16;labelBackgroundColor=none;" vertex="1" parent="zjFDjqaOxEZ_G2lJnjP6-79">
          <mxGeometry x="570" y="40" width="180" height="460" as="geometry" />
        </mxCell>
        <mxCell id="zjFDjqaOxEZ_G2lJnjP6-31" value="&lt;b&gt;&lt;font color=&quot;#66cc00&quot;&gt;4.解析标签，并把详情封装在Configuration对象中&lt;/font&gt;&lt;/b&gt;" style="html=1;verticalAlign=bottom;endArrow=block;curved=0;rounded=0;fontSize=12;startSize=8;endSize=8;" edge="1" parent="zjFDjqaOxEZ_G2lJnjP6-79" source="zjFDjqaOxEZ_G2lJnjP6-16" target="zjFDjqaOxEZ_G2lJnjP6-29">
          <mxGeometry width="80" relative="1" as="geometry">
            <mxPoint x="360" y="240" as="sourcePoint" />
            <mxPoint x="440" y="240" as="targetPoint" />
          </mxGeometry>
        </mxCell>
        <mxCell id="zjFDjqaOxEZ_G2lJnjP6-33" value="&lt;font style=&quot;&quot; color=&quot;#ff6666&quot;&gt;&lt;b&gt;5.解析mapper.xml,从&amp;lt;configuration&amp;gt;标签开始&lt;/b&gt;&lt;br&gt;&lt;b&gt;&amp;nbsp;parseConfiguration(XNode root)&lt;/b&gt;&lt;br&gt;&lt;/font&gt;" style="html=1;align=left;spacingLeft=2;endArrow=block;rounded=0;edgeStyle=orthogonalEdgeStyle;curved=0;rounded=0;fontSize=12;startSize=8;endSize=8;" edge="1" parent="zjFDjqaOxEZ_G2lJnjP6-79">
          <mxGeometry x="0.4902" y="-10" relative="1" as="geometry">
            <mxPoint x="354" y="260" as="sourcePoint" />
            <Array as="points">
              <mxPoint x="390" y="260" />
              <mxPoint x="390" y="290" />
            </Array>
            <mxPoint x="354" y="290" as="targetPoint" />
            <mxPoint as="offset" />
          </mxGeometry>
        </mxCell>
        <mxCell id="zjFDjqaOxEZ_G2lJnjP6-37" value="&lt;b&gt;6.返回Configuration封装后的对象&lt;/b&gt;" style="html=1;verticalAlign=bottom;endArrow=open;dashed=1;endSize=8;curved=0;rounded=0;fontSize=12;" edge="1" parent="zjFDjqaOxEZ_G2lJnjP6-79">
          <mxGeometry relative="1" as="geometry">
            <mxPoint x="650" y="340" as="sourcePoint" />
            <mxPoint x="354" y="340" as="targetPoint" />
          </mxGeometry>
        </mxCell>
        <mxCell id="zjFDjqaOxEZ_G2lJnjP6-38" value="&lt;b&gt;&lt;font style=&quot;font-size: 14px;&quot;&gt;DefaultSqlSession&lt;/font&gt;&lt;/b&gt;" style="shape=umlLifeline;perimeter=lifelinePerimeter;whiteSpace=wrap;html=1;container=0;dropTarget=0;collapsible=0;recursiveResize=0;outlineConnect=0;portConstraint=eastwest;newEdgeStyle={&quot;curved&quot;:0,&quot;rounded&quot;:0};fontSize=16;labelBackgroundColor=none;" vertex="1" parent="zjFDjqaOxEZ_G2lJnjP6-79">
          <mxGeometry x="790" y="40" width="180" height="460" as="geometry" />
        </mxCell>
        <mxCell id="zjFDjqaOxEZ_G2lJnjP6-42" value="&lt;font style=&quot;&quot; color=&quot;#ff6666&quot;&gt;&lt;b&gt;8.new DefaultSqlSessionFactory(config)&lt;/b&gt;&lt;/font&gt;" style="html=1;align=left;spacingLeft=2;endArrow=block;rounded=0;edgeStyle=orthogonalEdgeStyle;curved=0;rounded=0;fontSize=12;startSize=8;endSize=8;" edge="1" parent="zjFDjqaOxEZ_G2lJnjP6-79">
          <mxGeometry y="-14" relative="1" as="geometry">
            <mxPoint x="884" y="395" as="sourcePoint" />
            <Array as="points">
              <mxPoint x="914" y="425" />
            </Array>
            <mxPoint x="884" y="425" as="targetPoint" />
            <mxPoint as="offset" />
          </mxGeometry>
        </mxCell>
        <mxCell id="zjFDjqaOxEZ_G2lJnjP6-45" value="&lt;b&gt;9.返回创建的DefaultSqlSession（包含全局配置信息mybatis-config.xml，并保存在Configuration对象中）&lt;/b&gt;" style="html=1;verticalAlign=bottom;endArrow=open;dashed=1;endSize=8;curved=0;rounded=0;fontSize=12;" edge="1" parent="zjFDjqaOxEZ_G2lJnjP6-79">
          <mxGeometry relative="1" as="geometry">
            <mxPoint x="870" y="450" as="sourcePoint" />
            <mxPoint x="105" y="450" as="targetPoint" />
          </mxGeometry>
        </mxCell>
        <mxCell id="zjFDjqaOxEZ_G2lJnjP6-49" value="&lt;div style=&quot;&quot;&gt;&lt;font style=&quot;font-size: 14px;&quot;&gt;String resource = &quot;mybatis-config.xml&quot;;&amp;nbsp;&lt;/font&gt;&lt;span style=&quot;font-size: 13px;&quot;&gt; // &lt;b&gt;&lt;font color=&quot;#ff9933&quot;&gt;定义&lt;/font&gt;&lt;font style=&quot;font-size: 13px;&quot; color=&quot;#ff9933&quot;&gt;mybatis全局配置文件&lt;/font&gt;&lt;/b&gt;&lt;/span&gt;&lt;/div&gt;&lt;div style=&quot;&quot;&gt;&lt;font style=&quot;font-size: 14px;&quot;&gt;InputStream inputStream = Resources.getResourceAsStream(resource);&lt;/font&gt; &lt;b style=&quot;font-size: 14px;&quot;&gt;&lt;font style=&quot;font-size: 13px;&quot; color=&quot;#ff9933&quot;&gt;// 获取配置文件内容&lt;/font&gt;&lt;/b&gt;&lt;/div&gt;&lt;div style=&quot;&quot;&gt;&lt;font style=&quot;font-size: 14px;&quot;&gt;SqlSessionFactory sqlSessionFactory = new SqlSessionFactoryBuilder().build(inputStream); //&lt;/font&gt; &lt;b style=&quot;font-size: 14px;&quot;&gt;&lt;font color=&quot;#ff9933&quot; style=&quot;font-size: 13px;&quot;&gt;获取DefaultSqlSession对象&lt;/font&gt;&lt;/b&gt;&lt;/div&gt;" style="shape=note;whiteSpace=wrap;html=1;backgroundOutline=1;darkOpacity=0.05;fontSize=16;fillColor=#fff2cc;strokeColor=#d6b656;align=left;gradientColor=#ffd966;container=0;" vertex="1" parent="zjFDjqaOxEZ_G2lJnjP6-79">
          <mxGeometry x="10" y="501" width="1130" height="99" as="geometry" />
        </mxCell>
        <mxCell id="zjFDjqaOxEZ_G2lJnjP6-9" value="" style="html=1;points=[[0,0,0,0,5],[0,1,0,0,-5],[1,0,0,0,5],[1,1,0,0,-5]];perimeter=orthogonalPerimeter;outlineConnect=0;targetShapes=umlLifeline;portConstraint=eastwest;newEdgeStyle={&quot;curved&quot;:0,&quot;rounded&quot;:0};fontSize=16;container=0;" vertex="1" parent="zjFDjqaOxEZ_G2lJnjP6-79">
          <mxGeometry x="95" y="90" width="10" height="70" as="geometry" />
        </mxCell>
        <mxCell id="zjFDjqaOxEZ_G2lJnjP6-46" value="" style="html=1;points=[[0,0,0,0,5],[0,1,0,0,-5],[1,0,0,0,5],[1,1,0,0,-5]];perimeter=orthogonalPerimeter;outlineConnect=0;targetShapes=umlLifeline;portConstraint=eastwest;newEdgeStyle={&quot;curved&quot;:0,&quot;rounded&quot;:0};fontSize=16;container=0;" vertex="1" parent="zjFDjqaOxEZ_G2lJnjP6-79">
          <mxGeometry x="95" y="420" width="10" height="50" as="geometry" />
        </mxCell>
        <mxCell id="zjFDjqaOxEZ_G2lJnjP6-16" value="" style="html=1;points=[[0,0,0,0,5],[0,1,0,0,-5],[1,0,0,0,5],[1,1,0,0,-5]];perimeter=orthogonalPerimeter;outlineConnect=0;targetShapes=umlLifeline;portConstraint=eastwest;newEdgeStyle={&quot;curved&quot;:0,&quot;rounded&quot;:0};fontSize=16;container=0;" vertex="1" parent="zjFDjqaOxEZ_G2lJnjP6-79">
          <mxGeometry x="345" y="159" width="10" height="151" as="geometry" />
        </mxCell>
        <mxCell id="zjFDjqaOxEZ_G2lJnjP6-36" value="" style="html=1;points=[[0,0,0,0,5],[0,1,0,0,-5],[1,0,0,0,5],[1,1,0,0,-5]];perimeter=orthogonalPerimeter;outlineConnect=0;targetShapes=umlLifeline;portConstraint=eastwest;newEdgeStyle={&quot;curved&quot;:0,&quot;rounded&quot;:0};fontSize=16;container=0;" vertex="1" parent="zjFDjqaOxEZ_G2lJnjP6-79">
          <mxGeometry x="345" y="330" width="10" height="60" as="geometry" />
        </mxCell>
        <mxCell id="zjFDjqaOxEZ_G2lJnjP6-35" value="" style="html=1;points=[[0,0,0,0,5],[0,1,0,0,-5],[1,0,0,0,5],[1,1,0,0,-5]];perimeter=orthogonalPerimeter;outlineConnect=0;targetShapes=umlLifeline;portConstraint=eastwest;newEdgeStyle={&quot;curved&quot;:0,&quot;rounded&quot;:0};fontSize=16;container=0;" vertex="1" parent="zjFDjqaOxEZ_G2lJnjP6-79">
          <mxGeometry x="655" y="330" width="10" height="30" as="geometry" />
        </mxCell>
        <mxCell id="zjFDjqaOxEZ_G2lJnjP6-39" value="" style="html=1;points=[[0,0,0,0,5],[0,1,0,0,-5],[1,0,0,0,5],[1,1,0,0,-5]];perimeter=orthogonalPerimeter;outlineConnect=0;targetShapes=umlLifeline;portConstraint=eastwest;newEdgeStyle={&quot;curved&quot;:0,&quot;rounded&quot;:0};fontSize=16;container=0;" vertex="1" parent="zjFDjqaOxEZ_G2lJnjP6-79">
          <mxGeometry x="875" y="380" width="10" height="80" as="geometry" />
        </mxCell>
        <mxCell id="zjFDjqaOxEZ_G2lJnjP6-40" value="&lt;b&gt;&lt;font color=&quot;#66cc00&quot;&gt;7.build(parser.parse()))&lt;/font&gt;&lt;/b&gt;" style="html=1;verticalAlign=bottom;endArrow=block;curved=0;rounded=0;fontSize=12;startSize=8;endSize=8;exitX=1;exitY=1;exitDx=0;exitDy=-5;exitPerimeter=0;entryX=0;entryY=0;entryDx=0;entryDy=5;entryPerimeter=0;" edge="1" parent="zjFDjqaOxEZ_G2lJnjP6-79" source="zjFDjqaOxEZ_G2lJnjP6-36" target="zjFDjqaOxEZ_G2lJnjP6-39">
          <mxGeometry width="80" relative="1" as="geometry">
            <mxPoint x="354" y="374" as="sourcePoint" />
            <mxPoint x="870" y="390" as="targetPoint" />
          </mxGeometry>
        </mxCell>
        <mxCell id="zjFDjqaOxEZ_G2lJnjP6-81" value="&lt;b&gt;SqlSession生成核心流程&lt;/b&gt;" style="shape=umlFrame;whiteSpace=wrap;html=1;pointerEvents=0;fontSize=16;fillStyle=solid;swimlaneFillColor=default;width=290;height=30;fillColor=#00FF00;strokeColor=#00FF00;shadow=0;container=0;gradientColor=none;" vertex="1" parent="1">
          <mxGeometry x="69" y="640" width="1150" height="610" as="geometry" />
        </mxCell>
        <mxCell id="zjFDjqaOxEZ_G2lJnjP6-82" value="&lt;font style=&quot;font-size: 14px;&quot;&gt;&lt;b&gt;DefaultSqlSessionFactory&lt;/b&gt;&lt;/font&gt;" style="shape=umlLifeline;perimeter=lifelinePerimeter;whiteSpace=wrap;html=1;container=0;dropTarget=0;collapsible=0;recursiveResize=0;outlineConnect=0;portConstraint=eastwest;newEdgeStyle={&quot;curved&quot;:0,&quot;rounded&quot;:0};fontSize=16;labelBackgroundColor=none;" vertex="1" parent="1">
          <mxGeometry x="148" y="680" width="180" height="460" as="geometry" />
        </mxCell>
        <mxCell id="zjFDjqaOxEZ_G2lJnjP6-85" value="&lt;b style=&quot;border-color: var(--border-color);&quot;&gt;&lt;font style=&quot;border-color: var(--border-color); font-size: 14px;&quot;&gt;Configuration&lt;/font&gt;&lt;/b&gt;" style="shape=umlLifeline;perimeter=lifelinePerimeter;whiteSpace=wrap;html=1;container=0;dropTarget=0;collapsible=0;recursiveResize=0;outlineConnect=0;portConstraint=eastwest;newEdgeStyle={&quot;curved&quot;:0,&quot;rounded&quot;:0};fontSize=16;labelBackgroundColor=none;" vertex="1" parent="1">
          <mxGeometry x="400" y="680" width="180" height="460" as="geometry" />
        </mxCell>
        <mxCell id="zjFDjqaOxEZ_G2lJnjP6-119" value="" style="html=1;points=[[0,0,0,0,5],[0,1,0,0,-5],[1,0,0,0,5],[1,1,0,0,-5]];perimeter=orthogonalPerimeter;outlineConnect=0;targetShapes=umlLifeline;portConstraint=eastwest;newEdgeStyle={&quot;curved&quot;:0,&quot;rounded&quot;:0};fontSize=16;" vertex="1" parent="zjFDjqaOxEZ_G2lJnjP6-85">
          <mxGeometry x="85" y="140" width="10" height="130" as="geometry" />
        </mxCell>
        <mxCell id="zjFDjqaOxEZ_G2lJnjP6-88" value="&lt;b&gt;&lt;font style=&quot;font-size: 14px;&quot;&gt;Executor&lt;/font&gt;&lt;/b&gt;" style="shape=umlLifeline;perimeter=lifelinePerimeter;whiteSpace=wrap;html=1;container=0;dropTarget=0;collapsible=0;recursiveResize=0;outlineConnect=0;portConstraint=eastwest;newEdgeStyle={&quot;curved&quot;:0,&quot;rounded&quot;:0};fontSize=16;labelBackgroundColor=none;" vertex="1" parent="1">
          <mxGeometry x="755" y="680" width="180" height="460" as="geometry" />
        </mxCell>
        <mxCell id="zjFDjqaOxEZ_G2lJnjP6-121" value="" style="html=1;points=[[0,0,0,0,5],[0,1,0,0,-5],[1,0,0,0,5],[1,1,0,0,-5]];perimeter=orthogonalPerimeter;outlineConnect=0;targetShapes=umlLifeline;portConstraint=eastwest;newEdgeStyle={&quot;curved&quot;:0,&quot;rounded&quot;:0};fontSize=16;" vertex="1" parent="zjFDjqaOxEZ_G2lJnjP6-88">
          <mxGeometry x="85" y="264" width="10" height="80" as="geometry" />
        </mxCell>
        <mxCell id="zjFDjqaOxEZ_G2lJnjP6-92" value="&lt;b&gt;&lt;font style=&quot;font-size: 14px;&quot;&gt;DefaultSqlSession&lt;/font&gt;&lt;/b&gt;" style="shape=umlLifeline;perimeter=lifelinePerimeter;whiteSpace=wrap;html=1;container=0;dropTarget=0;collapsible=0;recursiveResize=0;outlineConnect=0;portConstraint=eastwest;newEdgeStyle={&quot;curved&quot;:0,&quot;rounded&quot;:0};fontSize=16;labelBackgroundColor=none;" vertex="1" parent="1">
          <mxGeometry x="1033" y="680" width="180" height="460" as="geometry" />
        </mxCell>
        <mxCell id="zjFDjqaOxEZ_G2lJnjP6-95" value="&lt;div style=&quot;&quot;&gt;&lt;font style=&quot;font-size: 14px;&quot;&gt;String resource = &quot;mybatis-config.xml&quot;;&amp;nbsp;&lt;/font&gt;&lt;span style=&quot;font-size: 13px;&quot;&gt; // &lt;b&gt;&lt;font color=&quot;#ff9933&quot;&gt;定义&lt;/font&gt;&lt;font style=&quot;font-size: 13px;&quot; color=&quot;#ff9933&quot;&gt;mybatis全局配置文件&lt;/font&gt;&lt;/b&gt;&lt;/span&gt;&lt;/div&gt;&lt;div style=&quot;&quot;&gt;&lt;font style=&quot;font-size: 14px;&quot;&gt;InputStream inputStream = Resources.getResourceAsStream(resource);&lt;/font&gt; &lt;b style=&quot;font-size: 14px;&quot;&gt;&lt;font style=&quot;font-size: 13px;&quot; color=&quot;#ff9933&quot;&gt;// 获取配置文件内容&lt;/font&gt;&lt;/b&gt;&lt;/div&gt;&lt;div style=&quot;&quot;&gt;&lt;font style=&quot;font-size: 14px;&quot;&gt;SqlSessionFactory sqlSessionFactory = new SqlSessionFactoryBuilder().build(inputStream); //&lt;/font&gt; &lt;b style=&quot;font-size: 14px;&quot;&gt;&lt;font color=&quot;#ff9933&quot; style=&quot;font-size: 13px;&quot;&gt;获取DefaultSqlSession对象&lt;/font&gt;&lt;/b&gt;&lt;/div&gt;" style="shape=note;whiteSpace=wrap;html=1;backgroundOutline=1;darkOpacity=0.05;fontSize=16;fillColor=#fff2cc;strokeColor=#d6b656;align=left;gradientColor=#ffd966;container=0;" vertex="1" parent="1">
          <mxGeometry x="80" y="1141" width="1130" height="99" as="geometry" />
        </mxCell>
        <mxCell id="zjFDjqaOxEZ_G2lJnjP6-96" value="" style="html=1;points=[[0,0,0,0,5],[0,1,0,0,-5],[1,0,0,0,5],[1,1,0,0,-5]];perimeter=orthogonalPerimeter;outlineConnect=0;targetShapes=umlLifeline;portConstraint=eastwest;newEdgeStyle={&quot;curved&quot;:0,&quot;rounded&quot;:0};fontSize=16;container=0;" vertex="1" parent="1">
          <mxGeometry x="233" y="751" width="10" height="79" as="geometry" />
        </mxCell>
        <mxCell id="zjFDjqaOxEZ_G2lJnjP6-106" value="&lt;b&gt;&lt;font color=&quot;#66cc00&quot;&gt;1、&lt;/font&gt;sqlSessionFactory.openSession()&lt;/b&gt;" style="html=1;verticalAlign=bottom;endArrow=block;curved=0;rounded=0;fontSize=12;startSize=8;endSize=8;" edge="1" parent="1">
          <mxGeometry x="0.5" y="10" width="80" relative="1" as="geometry">
            <mxPoint x="70" y="760" as="sourcePoint" />
            <mxPoint x="230" y="760" as="targetPoint" />
            <mxPoint as="offset" />
          </mxGeometry>
        </mxCell>
        <mxCell id="zjFDjqaOxEZ_G2lJnjP6-108" value="self call" style="html=1;align=left;spacingLeft=2;endArrow=block;rounded=0;edgeStyle=orthogonalEdgeStyle;curved=0;rounded=0;fontSize=12;startSize=8;endSize=8;" edge="1" parent="1">
          <mxGeometry relative="1" as="geometry">
            <mxPoint x="100" y="850" as="sourcePoint" />
            <Array as="points">
              <mxPoint x="130" y="880" />
            </Array>
            <mxPoint x="100" y="880" as="targetPoint" />
          </mxGeometry>
        </mxCell>
        <mxCell id="zjFDjqaOxEZ_G2lJnjP6-110" value="&lt;b&gt;2.openSessionFromDataSource&lt;/b&gt;" style="html=1;align=left;spacingLeft=2;endArrow=block;rounded=0;edgeStyle=orthogonalEdgeStyle;curved=0;rounded=0;fontSize=12;startSize=8;endSize=8;" edge="1" parent="1">
          <mxGeometry relative="1" as="geometry">
            <mxPoint x="244" y="766.5" as="sourcePoint" />
            <Array as="points">
              <mxPoint x="274" y="796.5" />
            </Array>
            <mxPoint x="244" y="796.5" as="targetPoint" />
            <mxPoint as="offset" />
          </mxGeometry>
        </mxCell>
        <mxCell id="zjFDjqaOxEZ_G2lJnjP6-115" value="self call" style="html=1;align=left;spacingLeft=2;endArrow=block;rounded=0;edgeStyle=orthogonalEdgeStyle;curved=0;rounded=0;fontSize=12;startSize=8;endSize=8;" edge="1" parent="1">
          <mxGeometry relative="1" as="geometry">
            <mxPoint x="140" y="1480" as="sourcePoint" />
            <Array as="points">
              <mxPoint x="170" y="1480" />
            </Array>
            <mxPoint x="140" y="1550" as="targetPoint" />
          </mxGeometry>
        </mxCell>
        <mxCell id="zjFDjqaOxEZ_G2lJnjP6-117" value="&lt;b&gt;&lt;br&gt;4.获取基本信息，并创建事务tx&lt;/b&gt;（&lt;br&gt;&lt;font color=&quot;#ff6666&quot;&gt;&amp;nbsp; a.&lt;/font&gt;获取环境信息：configuration.getEnvironment()&lt;br&gt;&lt;font color=&quot;#ff6666&quot;&gt;&amp;nbsp; b.&lt;/font&gt;根据environment中获取事务工厂TransactionFactory&lt;br&gt;&lt;font color=&quot;#ff6666&quot;&gt;&amp;nbsp; c.&lt;/font&gt;tx = transactionFactory.newTransaction(&lt;br&gt;&amp;nbsp; &amp;nbsp; &amp;nbsp; &amp;nbsp;environment.getDataSource(), level, autoCommit);&lt;br&gt;）" style="html=1;align=left;spacingLeft=2;endArrow=block;rounded=0;edgeStyle=orthogonalEdgeStyle;curved=0;rounded=0;fontSize=12;startSize=8;endSize=8;" edge="1" parent="1">
          <mxGeometry relative="1" as="geometry">
            <mxPoint x="495" y="840" as="sourcePoint" />
            <Array as="points">
              <mxPoint x="495" y="830" />
              <mxPoint x="525" y="830" />
              <mxPoint x="525" y="909" />
            </Array>
            <mxPoint x="495" y="910" as="targetPoint" />
            <mxPoint as="offset" />
          </mxGeometry>
        </mxCell>
        <mxCell id="zjFDjqaOxEZ_G2lJnjP6-120" value="&lt;b&gt;3.获取configuration获取元数据&lt;/b&gt;" style="html=1;verticalAlign=bottom;endArrow=block;curved=0;rounded=0;fontSize=12;startSize=8;endSize=8;" edge="1" parent="1">
          <mxGeometry width="80" relative="1" as="geometry">
            <mxPoint x="243" y="822" as="sourcePoint" />
            <mxPoint x="485" y="822" as="targetPoint" />
          </mxGeometry>
        </mxCell>
        <mxCell id="zjFDjqaOxEZ_G2lJnjP6-122" value="dispatch" style="html=1;verticalAlign=bottom;endArrow=block;curved=0;rounded=0;fontSize=12;startSize=8;endSize=8;" edge="1" parent="1">
          <mxGeometry width="80" relative="1" as="geometry">
            <mxPoint x="495" y="949" as="sourcePoint" />
            <mxPoint x="840" y="950" as="targetPoint" />
          </mxGeometry>
        </mxCell>
      </root>
    </mxGraphModel>
  </diagram>
</mxfile>
